<mxfile host="app.diagrams.net" agent="Mozilla/5.0 (Macintosh; Intel Mac OS X 10_15_7) AppleWebKit/537.36 (KHTML, like Gecko) Chrome/133.0.0.0 Safari/537.36" version="26.0.14">
  <diagram name="Page-1" id="hg5Iva1_rjpVSsbYuWLJ">
    <mxGraphModel dx="1876" dy="558" grid="1" gridSize="10" guides="1" tooltips="1" connect="1" arrows="1" fold="1" page="1" pageScale="1" pageWidth="850" pageHeight="1100" math="0" shadow="0">
      <root>
        <mxCell id="0" />
        <mxCell id="1" parent="0" />
        <mxCell id="KrwUJMKyWYbQcD5nX2oG-1" value="Functional&lt;div&gt;&lt;br&gt;&lt;/div&gt;" style="text;html=1;align=center;verticalAlign=middle;resizable=0;points=[];autosize=1;strokeColor=none;fillColor=none;" vertex="1" parent="1">
          <mxGeometry x="10" y="44" width="80" height="40" as="geometry" />
        </mxCell>
        <mxCell id="KrwUJMKyWYbQcD5nX2oG-2" value="- backnd serice to music recommendation&lt;div&gt;&lt;br&gt;&lt;/div&gt;" style="text;html=1;align=center;verticalAlign=middle;resizable=0;points=[];autosize=1;strokeColor=none;fillColor=none;" vertex="1" parent="1">
          <mxGeometry x="-85" y="83" width="250" height="40" as="geometry" />
        </mxCell>
        <mxCell id="KrwUJMKyWYbQcD5nX2oG-3" value="Non Functional&amp;nbsp;&lt;div&gt;&lt;br&gt;&lt;/div&gt;&lt;div&gt;- high avaliability&amp;nbsp;&lt;/div&gt;&lt;div&gt;- then low latency&amp;nbsp;&lt;/div&gt;&lt;div&gt;- recomendation should be fast&lt;/div&gt;&lt;div&gt;&lt;br&gt;&lt;/div&gt;&lt;div&gt;&lt;br&gt;&lt;/div&gt;&lt;div&gt;&lt;br&gt;&lt;/div&gt;" style="text;html=1;align=center;verticalAlign=middle;resizable=0;points=[];autosize=1;strokeColor=none;fillColor=none;" vertex="1" parent="1">
          <mxGeometry x="-55" y="123" width="190" height="130" as="geometry" />
        </mxCell>
        <mxCell id="KrwUJMKyWYbQcD5nX2oG-4" value="Numbers&lt;div&gt;- 100 Mil DAU&lt;/div&gt;&lt;div&gt;- 1 Billions Songs&amp;nbsp;&lt;/div&gt;&lt;div&gt;- globally&amp;nbsp;&amp;nbsp;&lt;/div&gt;&lt;div&gt;-&amp;nbsp;&lt;/div&gt;" style="text;html=1;align=center;verticalAlign=middle;resizable=0;points=[];autosize=1;strokeColor=none;fillColor=none;" vertex="1" parent="1">
          <mxGeometry x="-80" y="243" width="120" height="90" as="geometry" />
        </mxCell>
        <mxCell id="KrwUJMKyWYbQcD5nX2oG-6" value="Back of Math" style="text;html=1;align=center;verticalAlign=middle;resizable=0;points=[];autosize=1;strokeColor=none;fillColor=none;" vertex="1" parent="1">
          <mxGeometry x="255" y="48" width="90" height="30" as="geometry" />
        </mxCell>
        <mxCell id="KrwUJMKyWYbQcD5nX2oG-7" value="- 100 Millon -&amp;gt; 1200 req/second&lt;div&gt;&lt;br&gt;&lt;/div&gt;&lt;div&gt;&lt;br&gt;&lt;/div&gt;" style="text;html=1;align=center;verticalAlign=middle;resizable=0;points=[];autosize=1;strokeColor=none;fillColor=none;" vertex="1" parent="1">
          <mxGeometry x="175" y="83" width="190" height="60" as="geometry" />
        </mxCell>
        <mxCell id="KrwUJMKyWYbQcD5nX2oG-8" value="Actor" style="shape=umlActor;verticalLabelPosition=bottom;verticalAlign=top;html=1;outlineConnect=0;" vertex="1" parent="1">
          <mxGeometry x="225" y="350" width="30" height="60" as="geometry" />
        </mxCell>
        <mxCell id="KrwUJMKyWYbQcD5nX2oG-9" value="API&lt;div&gt;&lt;br&gt;&lt;/div&gt;" style="text;html=1;align=center;verticalAlign=middle;resizable=0;points=[];autosize=1;strokeColor=none;fillColor=none;" vertex="1" parent="1">
          <mxGeometry y="433" width="40" height="40" as="geometry" />
        </mxCell>
        <mxCell id="KrwUJMKyWYbQcD5nX2oG-10" value="&lt;br&gt;&lt;div&gt;-/getSong&lt;/div&gt;&lt;div&gt;- /addSong&lt;/div&gt;&lt;div&gt;- /recommendationResult&lt;/div&gt;&lt;div&gt;&lt;br&gt;&lt;/div&gt;" style="text;html=1;align=center;verticalAlign=middle;resizable=0;points=[];autosize=1;strokeColor=none;fillColor=none;" vertex="1" parent="1">
          <mxGeometry x="-100" y="413" width="160" height="90" as="geometry" />
        </mxCell>
        <mxCell id="KrwUJMKyWYbQcD5nX2oG-14" value="/getSong&lt;div&gt;- searchQuery&lt;/div&gt;&lt;div&gt;- UserId&amp;nbsp;&lt;/div&gt;" style="text;html=1;align=center;verticalAlign=middle;resizable=0;points=[];autosize=1;strokeColor=none;fillColor=none;" vertex="1" parent="1">
          <mxGeometry x="-70" y="513" width="100" height="60" as="geometry" />
        </mxCell>
        <mxCell id="KrwUJMKyWYbQcD5nX2oG-16" value="/addSong&amp;nbsp; we" style="text;html=1;align=center;verticalAlign=middle;resizable=0;points=[];autosize=1;strokeColor=none;fillColor=none;" vertex="1" parent="1">
          <mxGeometry x="100" y="278" width="100" height="30" as="geometry" />
        </mxCell>
        <mxCell id="KrwUJMKyWYbQcD5nX2oG-17" value="/addSong&lt;div&gt;- songName&lt;/div&gt;&lt;div&gt;- artistName&lt;/div&gt;&lt;div&gt;- gentre&lt;/div&gt;&lt;div&gt;- metadata&lt;/div&gt;&lt;div&gt;- album&amp;nbsp;&lt;/div&gt;" style="text;html=1;align=center;verticalAlign=middle;resizable=0;points=[];autosize=1;strokeColor=none;fillColor=none;" vertex="1" parent="1">
          <mxGeometry x="-85" y="543" width="90" height="100" as="geometry" />
        </mxCell>
        <mxCell id="KrwUJMKyWYbQcD5nX2oG-18" value="/addSOng&lt;div&gt;- songName&lt;/div&gt;&lt;div&gt;- artistName&lt;/div&gt;&lt;div&gt;- genre&lt;/div&gt;&lt;div&gt;- album&lt;/div&gt;&lt;div&gt;- metadata&lt;/div&gt;" style="text;html=1;align=center;verticalAlign=middle;resizable=0;points=[];autosize=1;strokeColor=none;fillColor=none;" vertex="1" parent="1">
          <mxGeometry x="105" y="493" width="90" height="100" as="geometry" />
        </mxCell>
      </root>
    </mxGraphModel>
  </diagram>
</mxfile>
